<svg xmlns="http://www.w3.org/2000/svg" xmlns:xlink="http://www.w3.org/1999/xlink" width="392pt" height="75pt" viewBox="0.00 0.00 391.84 74.60">
<g id="graph0" class="graph" transform="scale(1 1) rotate(0) translate(4 70.6)">
<title>Architecture</title>
<polygon fill="white" stroke="none" points="-4,4 -4,-70.6 387.84,-70.6 387.84,4 -4,4"/>
<!-- API -->
<g id="node1" class="node">
<title>API</title>
<polygon fill="none" stroke="black" points="88.32,-66.6 0,-66.6 0,-25 88.32,-25 88.32,-66.6"/>
<text text-anchor="middle" x="44.16" y="-50" font-family="Times,serif" font-size="14.00">API</text>
<text text-anchor="middle" x="44.16" y="-33.2" font-family="Times,serif" font-size="14.00">(Controllers)</text>
</g>
<!-- Core -->
<g id="node2" class="node">
<title>Core</title>
<polygon fill="none" stroke="black" points="383.84,-65.6 313.41,-65.6 313.41,-24 383.84,-24 383.84,-65.6"/>
<text text-anchor="middle" x="348.63" y="-49" font-family="Times,serif" font-size="14.00">CORE</text>
<text text-anchor="middle" x="348.63" y="-32.2" font-family="Times,serif" font-size="14.00">(Domain)</text>
</g>
<!-- API&#45;&gt;Core -->
<g id="edge1" class="edge">
<title>API-&gt;Core</title>
<path fill="none" stroke="black" d="M88.82,-53.82C94.68,-54.64 100.63,-55.34 106.32,-55.8 174.28,-61.32 253.26,-55.39 301.84,-50.33"/>
<polygon fill="black" stroke="black" points="302.14,-53.82 311.71,-49.26 301.39,-46.86 302.14,-53.82"/>
</g>
<!-- Infrastructure -->
<g id="node3" class="node">
<title>Infrastructure</title>
<polygon fill="none" stroke="black" points="276.41,-41.6 175.63,-41.6 175.63,0 276.41,0 276.41,-41.6"/>
<text text-anchor="middle" x="226.02" y="-25" font-family="Times,serif" font-size="14.00">Infrastructure</text>
<text text-anchor="middle" x="226.02" y="-8.2" font-family="Times,serif" font-size="14.00">(Repos, SDKs)</text>
</g>
<!-- API&#45;&gt;Infrastructure -->
<g id="edge3" class="edge">
<title>API-&gt;Infrastructure</title>
<path fill="none" stroke="gray" stroke-dasharray="5,2" d="M88.7,-39.75C111.33,-36.6 139.36,-32.71 164.1,-29.27"/>
<polygon fill="gray" stroke="gray" points="164.29,-32.78 173.71,-27.93 163.32,-25.84 164.29,-32.78"/>
<text text-anchor="middle" x="131.98" y="-41.2" font-family="Times,serif" font-size="14.00" fill="gray">Opcional</text>
</g>
<!-- Infrastructure&#45;&gt;Core -->
<g id="edge2" class="edge">
<title>Infrastructure-&gt;Core</title>
<path fill="none" stroke="black" d="M276.77,-30.7C285.07,-32.35 293.63,-34.05 301.82,-35.68"/>
<polygon fill="black" stroke="black" points="301.1,-39.11 311.59,-37.63 302.46,-32.24 301.1,-39.11"/>
</g>
</g>
</svg>